<svg width="245" height="183" viewBox="0 0 245 183" fill="none" xmlns="http://www.w3.org/2000/svg">
<path d="M25.7975 71.3144C25.7826 71.9181 25.9498 72.4666 26.1169 73.015C26.4511 74.1117 26.7853 75.2086 27.5539 75.7734C29.6223 77.3406 32.816 74.7693 32.8197 72.1711C32.8235 69.5731 30.9519 67.3465 29.1917 65.4856C30.7329 64.0172 33.2654 63.8449 34.9848 64.9191C35.7535 65.4839 36.6336 66.4144 37.7254 66.0817C38.4532 65.8599 39.0139 65.0898 39.3927 64.375C40.6554 61.9926 41.1493 59.0454 40.0056 56.597C38.8619 54.1488 35.6459 52.7315 33.3213 54.239C33.6296 53.9452 33.9527 53.0477 34.2052 52.5713C34.6397 52.0393 35.2561 51.452 35.9282 51.0474C37.0906 50.2936 38.5463 49.8501 40.1691 49.9549C42.3934 50.0763 43.7489 51.2614 45.3977 52.7567C46.5006 54.4183 47.9265 55.1824 49.8018 54.8107C53.6081 54.2501 53.4596 50.4998 54.0799 47.3143C54.715 43.525 57.4481 40.0952 60.976 38.6207C57.3627 41.12 59.7169 48.1937 64.0544 48.0706C68.3917 47.9476 70.4305 40.9338 66.9362 38.6025C67.8757 37.1176 70.2115 37.6044 71.5669 38.7896C72.9226 39.9747 73.8434 41.6918 75.5771 42.1623C79.3392 43.4132 81.9351 38.2273 82.332 34.3107C82.7299 30.3939 84.3044 25.1197 88.3333 25.2905C85.9233 27.8227 84.9245 31.7229 86.4732 34.8468C88.0211 37.971 92.2584 39.4766 95.1293 37.8027C97.9436 35.9464 98.133 30.6947 95.0994 29.2218C96.5294 27.3877 99.6744 29.2261 100.525 31.3641C101.375 33.5024 102.029 36.2996 104.112 37.263C107.034 38.3703 109.641 35.1788 110.975 32.3751C112.308 29.5717 114.677 26.253 117.726 27.1219C116.887 26.978 115.776 30.5126 115.761 31.1165C115.423 32.6178 115.561 34.3738 116.188 35.7809C117.388 38.4117 121.153 37.0648 122.932 35.7235C123.912 35.0253 124.781 33.9616 125.468 32.9531C126.843 30.9362 127.448 28.3545 127.143 26.0502C130.359 27.4674 129.387 32.758 132.097 35.1285C133.983 36.7511 136.825 36.2848 138.967 34.833C140.928 33.4364 142.484 31.3642 144.207 29.8404C146.112 28.261 148.492 26.9364 150.939 27.7889C149.105 28.9471 147.382 30.4709 146.427 32.5598C145.473 34.6484 145.889 37.3183 147.664 38.5754C148.963 39.578 150.712 39.4445 152.406 39.1281C155.009 38.5349 157.601 35.9471 156.331 33.7372C158.586 32.6506 160.806 35.37 161.348 37.802C161.891 40.2335 162.6 43.2139 164.991 43.8836C167.62 44.6806 169.736 41.8382 172.299 40.458C175.17 38.7842 179.422 39.6861 181.46 42.4611C179.711 42.5945 177.781 42.7831 176.072 43.7033C174.546 44.5679 173.172 46.5848 174.456 48.1911C175.63 49.4314 177.086 48.988 178.653 48.9099C180.458 48.9594 182.318 49.1915 183.855 50.3213C182.4 50.7647 181 51.3912 180.187 52.6378C179.373 53.8846 180.041 56.0782 181.609 56.0001C182.211 56.0164 182.7 55.6675 183.484 55.6283C184.995 55.3676 186.645 56.8628 186.306 58.3643C185.088 58.9352 183.8 59.9271 183.462 61.4283C183.124 62.93 184.171 64.4087 185.612 64.5689C187.417 64.6183 188.371 62.5295 188.891 60.9729C189.882 62.2689 189.656 64.1357 189.08 65.5098C188.56 67.0666 187.509 68.1859 186.808 69.7981C186.049 71.2277 185.823 73.0946 186.815 74.3905C187.624 75.742 190.087 75.9906 190.844 74.5613C189.273 77.2374 186.165 78.7838 183.157 78.7013C183.547 79.9809 183.993 81.4433 184.2 82.7785C182.912 83.7702 181.75 84.524 180.461 85.5161C180.631 83.4664 178.017 82.0654 176.365 83.1681C174.712 84.271 175.421 87.2514 177.393 87.8492C175.195 89.1183 172.48 89.3461 170.159 88.2555C169.027 87.8013 167.965 86.9265 166.691 87.3146C164.27 87.8525 165.076 91.8021 163.282 93.7471C162.231 94.8664 160.664 94.9442 159.279 94.9668C160.4 93.4266 159.439 90.9227 157.523 90.5077C155.788 90.0374 153.883 91.6168 153.657 93.4837C153.612 95.2953 155.317 96.9732 157.121 97.0226C155.762 98.4356 153.244 98.0042 151.581 97.1127C150.392 96.4761 149.148 95.6566 147.652 95.3135C146.995 95.114 146.575 95.0424 145.903 95.4469C144.74 96.2006 143.619 97.7408 143.169 98.8768C142.847 99.7741 142.706 100.616 142.382 101.514C141.246 103.658 138.168 103.997 135.705 103.748C137.05 102.939 138.409 101.526 137.599 100.175C136.901 99.1887 135.334 99.2665 134.172 100.02C133.009 100.774 131.959 101.893 131.621 103.394C131.465 104.84 132.148 106.43 133.462 106.829C132.705 108.258 130.536 108.32 129.11 107.556C127.685 106.791 126.637 105.313 125.337 104.31C124.037 103.308 122.192 102.472 120.848 103.281C119.013 104.439 119.247 107.165 118.237 109.071C117.227 110.977 114.973 112.063 112.875 111.704C114.108 110.529 115.467 109.116 114.966 107.471C114.297 105.277 111.036 105.671 109.258 107.012C107.969 108.005 106.974 109.307 106.636 110.808C106.298 112.309 106.855 114.137 108.281 114.901C106.866 116.131 104.727 114.985 103.554 113.745C102.381 112.504 101.039 110.715 99.2904 110.849C96.5911 110.473 95.8294 114.5 93.6721 116.556C92.4392 117.731 90.6196 118.285 88.9411 117.997C90.1443 118.03 90.8462 116.418 90.148 115.432C89.4499 114.446 88.009 114.286 86.9729 114.802C86.0631 115.079 85.4467 115.666 84.886 116.436C83.9613 117.317 82.9809 118.016 83.4265 119.478C83.7607 120.575 84.949 121.212 86.0965 121.062C83.3522 122.497 79.7576 121.795 77.5777 119.862C76.46 118.804 75.6504 117.453 74.5884 116.578C73.5264 115.703 71.6102 115.288 70.5036 116.224C69.7608 117.05 69.5491 118.313 69.2818 119.393C68.3126 122.086 64.6027 123.616 61.9885 122.215C63.4998 121.954 64.7327 120.779 65.1264 119.461C65.4643 117.959 64.7811 116.37 63.3551 115.606C62.6421 115.224 61.6209 115.135 60.7817 114.991C58.613 115.053 56.6523 116.449 56.0061 118.244C55.4156 120.222 56.5593 122.671 58.4755 123.086C55.7052 123.131 52.7269 121.841 51.0374 119.559C50.395 118.756 49.9345 117.897 49.1658 117.332C47.3908 116.075 45.0253 116.796 43.2465 118.137C41.6496 119.423 40.4575 121.384 38.6788 122.725C37.082 124.011 34.5345 124.787 32.7595 123.53C34.5234 122.793 36.3022 121.452 36.9484 119.657C37.7765 117.806 37.2344 115.374 35.3888 114.538C33.5432 113.702 31.2891 114.789 29.3989 115.764C27.5087 116.74 24.8498 117.15 23.7469 115.489C26.2944 114.712 28.9273 112.911 28.7491 110.369C28.4446 108.064 25.8304 106.663 23.5354 106.963C21.2404 107.263 19.3354 108.842 17.9057 110.676C17.111 108.721 18.3737 106.338 19.9705 105.053C21.5116 103.584 23.6395 102.736 25.1249 101.085C26.3577 99.9103 27.0596 98.298 26.7403 96.5974C26.7552 95.9935 26.7143 95.207 26.3653 94.714C25.5706 92.7587 22.8153 92.1999 20.8842 92.3888C18.7712 92.633 16.8811 93.6085 15.2285 94.7114L15.4551 92.8445C15.7782 91.9469 16.2127 91.415 16.7177 90.4621C17.0259 90.1684 17.0965 89.7473 17.349 89.2709C17.9097 88.5007 18.3442 87.9687 19.1983 87.5087C20.7246 86.6441 22.5442 86.0896 23.7214 84.7321C25.1512 82.8981 24.791 80.4108 24.1226 78.2173C23.4542 76.0238 22.3662 73.7583 22.6633 71.4703C22.9604 69.1823 24.3902 67.3483 26.0575 65.6416C25.6491 67.564 25.6602 69.5583 25.7975 71.3144Z" fill="#FDD44C"/>
<path d="M72.7975 114.314C72.7826 114.918 72.9498 115.467 73.1169 116.015C73.4511 117.112 73.7853 118.209 74.5539 118.773C76.6223 120.341 79.816 117.769 79.8197 115.171C79.8235 112.573 77.9519 110.347 76.1917 108.486C77.7329 107.017 80.2654 106.845 81.9848 107.919C82.7535 108.484 83.6336 109.414 84.7254 109.082C85.4532 108.86 86.0139 108.09 86.3927 107.375C87.6554 104.993 88.1493 102.045 87.0056 99.597C85.8619 97.1488 82.6459 95.7315 80.3213 97.239C80.6296 96.9452 80.9527 96.0477 81.2052 95.5713C81.6397 95.0393 82.2561 94.452 82.9282 94.0474C84.0906 93.2936 85.5463 92.8501 87.1691 92.9549C89.3934 93.0763 90.7489 94.2614 92.3977 95.7567C93.5006 97.4183 94.9265 98.1824 96.8018 97.8107C100.608 97.2501 100.46 93.4998 101.08 90.3143C101.715 86.525 104.448 83.0952 107.976 81.6207C104.363 84.12 106.717 91.1937 111.054 91.0706C115.392 90.9476 117.431 83.9338 113.936 81.6025C114.876 80.1176 117.212 80.6044 118.567 81.7896C119.923 82.9747 120.843 84.6918 122.577 85.1623C126.339 86.4132 128.935 81.2273 129.332 77.3107C129.73 73.3939 131.304 68.1197 135.333 68.2905C132.923 70.8227 131.924 74.7229 133.473 77.8468C135.021 80.971 139.258 82.4766 142.129 80.8027C144.944 78.9464 145.133 73.6947 142.099 72.2218C143.529 70.3877 146.674 72.2261 147.525 74.3641C148.375 76.5024 149.029 79.2996 151.112 80.263C154.034 81.3703 156.641 78.1788 157.975 75.3751C159.308 72.5717 161.677 69.253 164.726 70.1219C163.887 69.978 162.776 73.5126 162.761 74.1165C162.423 75.6178 162.561 77.3738 163.188 78.7809C164.388 81.4117 168.153 80.0648 169.932 78.7235C170.912 78.0253 171.781 76.9616 172.468 75.9531C173.843 73.9362 174.448 71.3545 174.143 69.0502C177.359 70.4674 176.387 75.758 179.097 78.1285C180.983 79.7511 183.825 79.2848 185.967 77.833C187.928 76.4364 189.484 74.3642 191.207 72.8404C193.112 71.261 195.492 69.9364 197.939 70.7889C196.105 71.9471 194.382 73.4709 193.427 75.5598C192.473 77.6484 192.889 80.3183 194.664 81.5754C195.963 82.578 197.712 82.4445 199.406 82.1281C202.009 81.5349 204.601 78.9471 203.331 76.7372C205.586 75.6506 207.806 78.37 208.348 80.802C208.891 83.2335 209.6 86.2139 211.991 86.8836C214.62 87.6806 216.736 84.8382 219.299 83.458C222.17 81.7842 226.422 82.6861 228.46 85.4611C226.711 85.5945 224.781 85.7831 223.072 86.7033C221.546 87.5679 220.172 89.5848 221.456 91.1911C222.63 92.4314 224.086 91.988 225.653 91.9099C227.458 91.9594 229.318 92.1915 230.855 93.3213C229.4 93.7647 228 94.3912 227.187 95.6378C226.373 96.8846 227.041 99.0782 228.609 99.0001C229.211 99.0164 229.7 98.6675 230.484 98.6283C231.995 98.3676 233.645 99.8628 233.306 101.364C232.088 101.935 230.8 102.927 230.462 104.428C230.124 105.93 231.171 107.409 232.612 107.569C234.417 107.618 235.371 105.529 235.891 103.973C236.882 105.269 236.656 107.136 236.08 108.51C235.56 110.067 234.509 111.186 233.808 112.798C233.049 114.228 232.823 116.095 233.815 117.391C234.624 118.742 237.087 118.991 237.844 117.561C236.273 120.237 233.165 121.784 230.157 121.701C230.547 122.981 230.993 124.443 231.2 125.778C229.912 126.77 228.75 127.524 227.461 128.516C227.631 126.466 225.017 125.065 223.365 126.168C221.712 127.271 222.421 130.251 224.393 130.849C222.195 132.118 219.48 132.346 217.159 131.255C216.027 130.801 214.965 129.927 213.691 130.315C211.27 130.853 212.076 134.802 210.282 136.747C209.231 137.866 207.664 137.944 206.279 137.967C207.4 136.427 206.439 133.923 204.523 133.508C202.788 133.037 200.883 134.617 200.657 136.484C200.612 138.295 202.317 139.973 204.121 140.023C202.762 141.436 200.244 141.004 198.581 140.113C197.392 139.476 196.148 138.657 194.652 138.313C193.995 138.114 193.575 138.042 192.903 138.447C191.74 139.201 190.619 140.741 190.169 141.877C189.847 142.774 189.706 143.616 189.382 144.514C188.246 146.658 185.168 146.997 182.705 146.748C184.05 145.939 185.409 144.526 184.599 143.175C183.901 142.189 182.334 142.266 181.172 143.02C180.009 143.774 178.959 144.893 178.621 146.394C178.465 147.84 179.148 149.43 180.462 149.829C179.705 151.258 177.536 151.32 176.11 150.556C174.685 149.791 173.637 148.313 172.337 147.31C171.037 146.308 169.192 145.472 167.848 146.281C166.013 147.439 166.247 150.165 165.237 152.071C164.227 153.977 161.973 155.063 159.875 154.704C161.108 153.529 162.467 152.116 161.966 150.471C161.297 148.277 158.036 148.671 156.258 150.012C154.969 151.005 153.974 152.307 153.636 153.808C153.298 155.309 153.855 157.137 155.281 157.901C153.866 159.131 151.727 157.985 150.554 156.745C149.381 155.504 148.039 153.715 146.29 153.849C143.591 153.473 142.829 157.5 140.672 159.556C139.439 160.731 137.62 161.285 135.941 160.997C137.144 161.03 137.846 159.418 137.148 158.432C136.45 157.446 135.009 157.286 133.973 157.802C133.063 158.079 132.447 158.666 131.886 159.436C130.961 160.317 129.981 161.016 130.427 162.478C130.761 163.575 131.949 164.212 133.096 164.062C130.352 165.497 126.758 164.795 124.578 162.862C123.46 161.804 122.65 160.453 121.588 159.578C120.526 158.703 118.61 158.288 117.504 159.224C116.761 160.05 116.549 161.313 116.282 162.393C115.313 165.086 111.603 166.616 108.988 165.215C110.5 164.954 111.733 163.779 112.126 162.461C112.464 160.959 111.781 159.37 110.355 158.606C109.642 158.224 108.621 158.135 107.782 157.991C105.613 158.053 103.652 159.449 103.006 161.244C102.416 163.222 103.559 165.671 105.475 166.086C102.705 166.131 99.7269 164.841 98.0374 162.559C97.395 161.756 96.9345 160.897 96.1658 160.332C94.3908 159.075 92.0253 159.796 90.2465 161.137C88.6496 162.423 87.4575 164.384 85.6788 165.725C84.082 167.011 81.5345 167.787 79.7595 166.53C81.5234 165.793 83.3022 164.452 83.9484 162.657C84.7765 160.806 84.2344 158.374 82.3888 157.538C80.5432 156.702 78.2891 157.789 76.3989 158.764C74.5087 159.74 71.8498 160.15 70.7469 158.489C73.2944 157.712 75.9273 155.911 75.7491 153.369C75.4446 151.064 72.8304 149.663 70.5354 149.963C68.2404 150.263 66.3354 151.842 64.9057 153.676C64.111 151.721 65.3737 149.338 66.9705 148.053C68.5116 146.584 70.6395 145.736 72.1249 144.085C73.3577 142.91 74.0596 141.298 73.7403 139.597C73.7552 138.994 73.7143 138.207 73.3653 137.714C72.5706 135.759 69.8153 135.2 67.8842 135.389C65.7712 135.633 63.8811 136.609 62.2285 137.711L62.4551 135.844C62.7782 134.947 63.2127 134.415 63.7177 133.462C64.0259 133.168 64.0965 132.747 64.349 132.271C64.9097 131.501 65.3442 130.969 66.1983 130.509C67.7246 129.644 69.5442 129.09 70.7214 127.732C72.1512 125.898 71.791 123.411 71.1226 121.217C70.4542 119.024 69.3662 116.758 69.6633 114.47C69.9604 112.182 71.3902 110.348 73.0575 108.642C72.6491 110.564 72.6602 112.558 72.7975 114.314Z" fill="#FDD44C"/>
<path d="M188.788 65.1986C189.308 63.6417 189.534 61.7748 188.598 60.6617C188.134 62.4013 186.942 64.3626 185.319 64.2577C183.879 64.0974 183.013 62.5631 183.169 61.1174C183.507 59.6158 184.614 58.6794 186.014 58.0531C186.17 56.6072 184.703 55.0565 183.191 55.3174C182.646 55.4835 181.917 55.7055 181.316 55.6888C179.931 55.7113 179.263 53.5178 179.894 52.3265C180.707 51.08 182.108 50.4535 183.563 50.0101C181.899 49.1186 180.221 48.8309 178.36 48.5989C177.339 48.5103 176.066 48.8984 175.114 48.3893C173.982 47.9351 173.41 46.7111 173.859 45.5754C174.955 42.6445 178.691 42.5049 181.168 42.1498C179.953 40.1228 176.904 39.2538 174.736 39.3153C172.987 39.4486 171.643 40.2577 170.354 41.2497C169.374 41.9479 168.156 42.5188 166.882 42.9069C164.335 43.6832 161.676 44.0938 159.143 44.2662C156.61 44.4388 154.204 44.3729 151.854 44.4897C150.105 44.6231 148.118 44.6293 146.717 45.2558C145.499 45.8267 145.596 46.796 146.112 47.8375C146.628 48.8786 147.326 49.8646 148.333 50.5569C150.052 51.6311 152.054 51.021 153.873 50.4667C153.242 51.658 151.954 52.6497 150.791 53.4035C149.629 54.1572 148.117 54.4181 147.248 55.4819C145.51 57.6097 146.821 60.6063 149.395 61.2205C148.288 62.157 146.539 62.2904 145.042 61.9474C144.385 61.7482 143.672 61.3659 143.142 60.9284C142.904 60.8011 141.8 59.1397 141.983 59.0841C140.653 59.2894 139.141 59.5503 138.567 60.9241C137.738 62.7745 139.498 64.6356 139.328 66.6852C139.283 68.4968 137.196 70.1315 135.406 69.4784C136.037 68.2872 136.486 67.1515 136.516 65.9439C136.546 64.7359 135.555 63.4399 134.295 63.2245C132.673 63.1195 131.662 65.0255 131.38 66.7096C131.043 68.2108 130.634 70.1333 129.052 70.8151C129.628 69.441 130.329 67.8289 129.939 66.5494C129.565 64.6658 126.909 62.4784 125.646 64.8609C125.142 65.8138 125.112 67.0214 125.209 67.9908C125.624 70.661 122.795 73.1213 120.095 72.7453C121.985 71.7698 121.514 68.9171 120.229 67.3108C119.531 66.3248 118.231 65.3225 117.14 65.6551C115.628 65.916 114.982 67.7109 115.19 69.0461C115.454 70.5638 116.571 71.6216 117.507 72.7347C115.98 73.5996 114.261 72.5254 113.088 71.2847C112.097 69.9885 111.413 68.3989 110.057 67.2138C108.758 66.2115 106.478 65.9074 105.721 67.3367C107.324 70.6437 104.561 75.2812 101.007 75.3652C102.199 73.4038 102.805 70.8222 101.773 68.7394C100.74 66.6567 97.3834 66.0815 96.1357 67.86C94.8881 69.6386 96.2697 72.2141 97.9738 73.8923C95.2035 73.9374 92.2399 72.0437 91.223 69.357C90.7064 68.3158 90.6804 66.9254 89.9823 65.9394C89.2843 64.9535 87.8587 64.1893 86.8778 64.8877C85.8978 65.5859 85.8682 66.7936 85.6005 67.8739C85.0104 69.8516 83.5246 71.5029 81.705 72.0574C81.9876 70.3731 81.5564 68.3071 80.2568 67.3047C78.957 66.3024 76.3539 66.8958 76.0717 68.58C75.86 69.8431 76.6138 71.0118 77.0037 72.2914C77.7686 75.4543 75.0503 78.2803 72.4731 80.2643C74.5192 77.8429 72.3989 73.4947 69.1384 73.8889C67.3894 74.0223 66.9809 75.9447 67.0069 77.3352C67.0515 75.5237 64.8568 74.1947 63.0371 74.7492C61.1618 75.1208 59.8584 76.7167 58.6812 78.0742C59.1454 76.3346 59.19 74.5231 58.1428 73.0442C57.0956 71.5654 54.8155 71.2613 53.5827 72.4361C52.7137 73.4999 52.7953 75.0732 52.6393 76.5191C52.4387 79.7765 49.8319 82.9681 46.6827 83.7279C47.8748 81.7665 49.1932 79.5669 48.8887 77.2624C48.5843 74.9579 46.293 72.6596 44.1651 73.5078C42.2193 74.3005 41.7959 76.8266 40.7301 78.5498C39.5937 80.694 37.3248 82.3842 34.9035 82.9222C36.3184 81.692 38.0415 80.1681 38.268 78.3011C38.6765 76.3788 36.8051 74.1523 34.9854 74.7068C33.5297 75.1503 33.1211 77.0727 32.7832 78.574C31.9254 81.6322 29.7529 84.2918 27.0087 85.7274C28.8728 83.3614 28.0113 79.229 25.2152 77.8836C25.7165 79.5288 25.5605 80.9747 25.2225 82.476C25.1519 82.8971 25.1371 83.5009 25.0665 83.9219C24.476 85.8997 21.7465 86.7314 20.0384 87.6515C19.1842 88.1115 18.7497 88.6435 18.189 89.4137C17.8808 89.7073 17.8102 90.1283 17.5577 90.6048C16.997 91.375 16.6181 92.0897 16.2951 92.9873L16.0685 94.8542C17.721 93.7513 19.6112 92.7758 21.7242 92.5315C23.6552 92.3427 26.2287 92.9569 27.2053 94.8568C27.3724 95.4052 27.4132 96.1918 27.5803 96.7402C27.7177 98.4962 27.0158 100.108 25.9649 101.228C24.4237 102.696 22.3516 103.727 20.8105 105.196C19.2693 106.664 17.951 108.864 18.7457 110.819C20.4131 109.112 22.1362 107.588 24.3754 107.106C26.6703 106.806 29.2847 108.207 29.5891 110.511C29.7673 113.054 27.1901 115.038 24.587 115.631C25.7456 117.476 28.3487 116.882 30.2389 115.907C32.129 114.931 34.3275 113.662 36.2288 114.681C38.0743 115.517 38.6165 117.949 37.7884 119.799C36.9602 121.65 35.3077 122.753 33.5995 123.673C35.3745 124.93 37.922 124.154 39.5188 122.868C41.1156 121.582 42.3077 119.621 44.0865 118.28C45.6833 116.994 48.2308 116.218 50.0058 117.475C50.7745 118.04 51.2349 118.898 51.8773 119.701C53.567 121.983 56.5452 123.273 59.3154 123.228C57.2173 122.869 56.2556 120.365 56.8461 118.387C57.4365 116.409 59.635 115.14 61.6217 115.134C62.5871 115.04 63.4264 115.183 64.1951 115.748C65.4391 116.568 66.3044 118.102 65.9664 119.604C65.6284 121.105 64.3955 122.28 62.8284 122.358C65.4427 123.758 69.1526 122.229 70.1218 119.536C70.5711 118.4 70.6009 117.193 71.3436 116.367C72.4503 115.43 74.3107 115.663 75.4284 116.72C76.4905 117.595 77.3 118.947 78.4178 120.005C80.6533 122.12 84.1922 122.64 86.9365 121.204C85.789 121.354 84.6007 120.718 84.2665 119.621C83.7652 117.976 84.8013 117.46 85.7259 116.579C86.3424 115.992 86.9589 115.404 87.813 114.944C88.8491 114.429 90.2899 114.589 90.9881 115.575C91.6861 116.561 90.9843 118.173 89.7811 118.14C91.4596 118.428 93.2792 117.873 94.5121 116.699C96.4874 114.698 97.249 110.671 100.201 110.57C102.006 110.619 103.291 112.226 104.464 113.466C105.637 114.707 107.776 115.853 109.192 114.623C107.765 113.859 107.208 112.031 107.546 110.53C107.885 109.028 108.88 107.726 110.168 106.734C111.947 105.393 115.025 105.054 115.876 107.192C116.377 108.838 115.018 110.251 113.785 111.425C115.883 111.785 118.137 110.699 119.148 108.793C120.157 106.887 119.868 103.978 121.758 103.003C123.103 102.194 125.13 102.974 126.248 104.032C127.547 105.034 128.595 106.513 130.021 107.277C131.447 108.041 133.616 107.98 134.373 106.55C133.059 106.152 132.319 104.38 132.531 103.116C132.687 101.67 133.738 100.551 135.082 99.742C136.062 99.0438 137.812 98.9102 138.51 99.8961C139.32 101.248 137.778 102.716 136.616 103.47C139.078 103.718 142.156 103.38 143.293 101.236C143.672 100.521 143.757 99.4958 144.08 98.5983C144.474 97.2798 145.651 95.9224 146.813 95.1686C147.303 94.8194 147.961 95.0186 148.563 95.035C149.877 95.4337 151.121 96.2531 152.491 96.8346C154.337 97.6704 156.673 98.1574 158.032 96.7444C156.283 96.8778 154.396 95.2552 154.567 93.2055C154.612 91.3939 156.517 89.8146 158.433 90.2295C160.167 90.7001 161.129 93.2037 160.189 94.6885C161.575 94.666 163.141 94.5882 164.192 93.4689C165.805 91.5792 165.236 87.7571 167.602 87.0361C168.693 86.7036 169.938 87.5231 171.07 87.977C173.391 89.0679 176.288 88.7845 178.304 87.5706C176.387 87.156 175.861 84.1201 177.276 82.8899C178.928 81.7872 181.543 83.1879 181.371 85.2378C182.66 84.2457 183.822 83.4921 185.111 82.5002C184.721 81.2207 184.275 79.7582 183.885 78.4787C186.894 78.5609 189.946 76.8317 191.573 74.3383C190.815 75.768 188.535 75.4638 187.543 74.1679C186.734 72.8164 186.961 70.9492 187.536 69.5754C187.217 67.8747 188.212 66.5726 188.788 65.1986Z" fill="#FDC232"/>
<path d="M235.788 108.199C236.308 106.642 236.534 104.775 235.598 103.662C235.134 105.401 233.942 107.363 232.319 107.258C230.879 107.097 230.013 105.563 230.169 104.117C230.507 102.616 231.614 101.679 233.014 101.053C233.17 99.6072 231.703 98.0565 230.191 98.3174C229.646 98.4835 228.917 98.7055 228.316 98.6888C226.931 98.7113 226.263 96.5178 226.894 95.3265C227.707 94.08 229.108 93.4535 230.563 93.0101C228.899 92.1186 227.221 91.8309 225.36 91.5989C224.339 91.5103 223.066 91.8984 222.114 91.3893C220.982 90.9351 220.41 89.7111 220.859 88.5754C221.955 85.6445 225.691 85.5049 228.168 85.1498C226.953 83.1228 223.904 82.2538 221.736 82.3153C219.987 82.4486 218.643 83.2577 217.354 84.2497C216.374 84.9479 215.156 85.5188 213.882 85.9069C211.335 86.6832 208.676 87.0938 206.143 87.2662C203.61 87.4388 201.204 87.3729 198.854 87.4897C197.105 87.6231 195.118 87.6293 193.717 88.2558C192.499 88.8267 192.596 89.796 193.112 90.8375C193.628 91.8786 194.326 92.8646 195.333 93.5569C197.052 94.6311 199.054 94.021 200.873 93.4667C200.242 94.658 198.954 95.6497 197.791 96.4035C196.629 97.1572 195.117 97.4181 194.248 98.4819C192.51 100.61 193.821 103.606 196.395 104.22C195.288 105.157 193.539 105.29 192.042 104.947C191.385 104.748 190.672 104.366 190.142 103.928C189.904 103.801 188.8 102.14 188.983 102.084C187.653 102.289 186.141 102.55 185.567 103.924C184.738 105.775 186.498 107.636 186.328 109.685C186.283 111.497 184.196 113.131 182.406 112.478C183.037 111.287 183.486 110.151 183.516 108.944C183.546 107.736 182.555 106.44 181.295 106.224C179.673 106.119 178.662 108.026 178.38 109.71C178.043 111.211 177.634 113.133 176.052 113.815C176.628 112.441 177.329 110.829 176.939 109.549C176.565 107.666 173.909 105.478 172.646 107.861C172.142 108.814 172.112 110.021 172.209 110.991C172.624 113.661 169.795 116.121 167.095 115.745C168.985 114.77 168.514 111.917 167.229 110.311C166.531 109.325 165.231 108.323 164.14 108.655C162.628 108.916 161.982 110.711 162.19 112.046C162.454 113.564 163.571 114.622 164.507 115.735C162.98 116.6 161.261 115.525 160.088 114.285C159.097 112.989 158.413 111.399 157.057 110.214C155.758 109.211 153.478 108.907 152.721 110.337C154.324 113.644 151.561 118.281 148.007 118.365C149.199 116.404 149.805 113.822 148.773 111.739C147.74 109.657 144.383 109.081 143.136 110.86C141.888 112.639 143.27 115.214 144.974 116.892C142.203 116.937 139.24 115.044 138.223 112.357C137.706 111.316 137.68 109.925 136.982 108.939C136.284 107.954 134.859 107.189 133.878 107.888C132.898 108.586 132.868 109.794 132.601 110.874C132.01 112.852 130.525 114.503 128.705 115.057C128.988 113.373 128.556 111.307 127.257 110.305C125.957 109.302 123.354 109.896 123.072 111.58C122.86 112.843 123.614 114.012 124.004 115.291C124.769 118.454 122.05 121.28 119.473 123.264C121.519 120.843 119.399 116.495 116.138 116.889C114.389 117.022 113.981 118.945 114.007 120.335C114.051 118.524 111.857 117.195 110.037 117.749C108.162 118.121 106.858 119.717 105.681 121.074C106.145 119.335 106.19 117.523 105.143 116.044C104.096 114.565 101.816 114.261 100.583 115.436C99.7137 116.5 99.7953 118.073 99.6393 119.519C99.4387 122.777 96.8319 125.968 93.6827 126.728C94.8748 124.767 96.1932 122.567 95.8887 120.262C95.5843 117.958 93.293 115.66 91.1651 116.508C89.2193 117.3 88.7959 119.827 87.7301 121.55C86.5937 123.694 84.3248 125.384 81.9035 125.922C83.3184 124.692 85.0415 123.168 85.268 121.301C85.6765 119.379 83.8051 117.152 81.9854 117.707C80.5297 118.15 80.1211 120.073 79.7832 121.574C78.9254 124.632 76.7529 127.292 74.0087 128.727C75.8728 126.361 75.0113 122.229 72.2152 120.884C72.7165 122.529 72.5605 123.975 72.2225 125.476C72.1519 125.897 72.1371 126.501 72.0665 126.922C71.476 128.9 68.7465 129.731 67.0384 130.651C66.1842 131.112 65.7497 131.643 65.189 132.414C64.8808 132.707 64.8102 133.128 64.5577 133.605C63.997 134.375 63.6181 135.09 63.2951 135.987L63.0685 137.854C64.721 136.751 66.6112 135.776 68.7242 135.532C70.6552 135.343 73.2287 135.957 74.2053 137.857C74.3724 138.405 74.4132 139.192 74.5803 139.74C74.7177 141.496 74.0158 143.108 72.9649 144.228C71.4237 145.696 69.3516 146.727 67.8105 148.196C66.2693 149.664 64.951 151.864 65.7457 153.819C67.4131 152.112 69.1362 150.588 71.3754 150.106C73.6703 149.806 76.2847 151.207 76.5891 153.511C76.7673 156.054 74.1901 158.038 71.587 158.631C72.7456 160.476 75.3487 159.882 77.2389 158.907C79.129 157.931 81.3275 156.662 83.2288 157.681C85.0743 158.517 85.6165 160.949 84.7884 162.799C83.9602 164.65 82.3077 165.753 80.5995 166.673C82.3745 167.93 84.922 167.154 86.5188 165.868C88.1156 164.582 89.3077 162.621 91.0865 161.28C92.6833 159.994 95.2308 159.218 97.0058 160.475C97.7745 161.04 98.2349 161.898 98.8773 162.701C100.567 164.983 103.545 166.273 106.315 166.228C104.217 165.869 103.256 163.365 103.846 161.387C104.437 159.409 106.635 158.14 108.622 158.134C109.587 158.04 110.426 158.183 111.195 158.748C112.439 159.568 113.304 161.102 112.966 162.604C112.628 164.105 111.396 165.28 109.828 165.358C112.443 166.758 116.153 165.229 117.122 162.536C117.571 161.4 117.601 160.193 118.344 159.367C119.45 158.43 121.311 158.663 122.428 159.72C123.491 160.595 124.3 161.947 125.418 163.005C127.653 165.12 131.192 165.64 133.937 164.204C132.789 164.354 131.601 163.718 131.266 162.621C130.765 160.976 131.801 160.46 132.726 159.579C133.342 158.992 133.959 158.404 134.813 157.944C135.849 157.429 137.29 157.589 137.988 158.575C138.686 159.561 137.984 161.173 136.781 161.14C138.46 161.428 140.279 160.873 141.512 159.699C143.487 157.698 144.249 153.671 147.201 153.57C149.006 153.619 150.291 155.226 151.464 156.466C152.637 157.707 154.776 158.853 156.192 157.623C154.765 156.859 154.208 155.031 154.546 153.53C154.885 152.028 155.88 150.726 157.168 149.734C158.947 148.393 162.025 148.054 162.876 150.192C163.377 151.838 162.018 153.251 160.785 154.425C162.883 154.785 165.137 153.699 166.148 151.793C167.157 149.887 166.868 146.978 168.758 146.003C170.103 145.194 172.13 145.974 173.248 147.032C174.547 148.034 175.595 149.513 177.021 150.277C178.447 151.041 180.616 150.98 181.373 149.55C180.059 149.152 179.319 147.38 179.531 146.116C179.687 144.67 180.738 143.551 182.082 142.742C183.062 142.044 184.812 141.91 185.51 142.896C186.32 144.248 184.778 145.716 183.616 146.47C186.078 146.718 189.156 146.38 190.293 144.236C190.672 143.521 190.757 142.496 191.08 141.598C191.474 140.28 192.651 138.922 193.813 138.169C194.303 137.819 194.961 138.019 195.563 138.035C196.877 138.434 198.121 139.253 199.491 139.835C201.337 140.67 203.673 141.157 205.032 139.744C203.283 139.878 201.396 138.255 201.567 136.205C201.612 134.394 203.517 132.815 205.433 133.23C207.167 133.7 208.129 136.204 207.189 137.689C208.575 137.666 210.141 137.588 211.192 136.469C212.805 134.579 212.236 130.757 214.602 130.036C215.693 129.704 216.938 130.523 218.07 130.977C220.391 132.068 223.288 131.784 225.304 130.571C223.387 130.156 222.861 127.12 224.276 125.89C225.928 124.787 228.543 126.188 228.371 128.238C229.66 127.246 230.822 126.492 232.111 125.5C231.721 124.221 231.275 122.758 230.885 121.479C233.894 121.561 236.946 119.832 238.573 117.338C237.815 118.768 235.535 118.464 234.543 117.168C233.734 115.816 233.961 113.949 234.536 112.575C234.217 110.875 235.212 109.573 235.788 108.199Z" fill="#FDC232"/>
</svg>
